<svg id="Layer_1" data-name="Layer 1" xmlns="http://www.w3.org/2000/svg" viewBox="0 0 1000 1000"><defs><style>.cls-1{opacity:0.4;}.cls-2{fill:#8b80b8;}.cls-3,.cls-4,.cls-5,.cls-6,.cls-7,.cls-8{fill:none;stroke-linecap:round;stroke-linejoin:round;stroke-width:4px;}.cls-3,.cls-4,.cls-5,.cls-6{stroke:#fff;}.cls-4{stroke-dasharray:9.88 9.88;}.cls-5{stroke-dasharray:9.97 9.97;}.cls-6{stroke-dasharray:10.14 10.14;}.cls-7,.cls-8{stroke:#ec615c;}.cls-8{stroke-dasharray:10.02 10.02;}.cls-9{fill:#ec615c;}</style></defs><title>Routes</title><g class="cls-1"><path class="cls-2" d="M312.47,215.35a7.39,7.39,0,0,0-1.3,1.12c-3.19,4-4.72,3.88-6.7-.86-2.82-6.78-4.54-13.74-1.72-21,2.08-5.39,4.74-7.17,10.24-5.61s9.52-.38,13.15-4.31c5-5.41,10.07-10.68,12-18.21.28-1.11,2.86-2.32,4.35-2.29,2.74.06,5.45,1,8.18,1.59,5.81,1.19,5.79,1.18,5.38,7.25a35.33,35.33,0,0,0-.2,6.41c.33,2.81,2.28,3.83,5,3.13A8.28,8.28,0,0,0,364.2,181a14.53,14.53,0,0,1,11.38-4.18c1.47.11,3.13-1.36,4.58-2.3s2.48-2,4.44-3.61c.25,2.73.5,4.55.58,6.38.4,9.2,9.47,19.46,18.65,20.83,2.62.39,4.08,1.28,4.38,4.16.42,4.18,3.22,7,6.25,9.65,4.45,3.87,8.66,7.8,8,14.63-.27,2.8,2.15,3.2,4.31,2.71a25.87,25.87,0,0,0,4.52-1.94c4.27-1.9,9.5.74,10,5.41.39,3.83,1.69,6.71,5,8.82,1.16.73,2.45,2.35,2.46,3.57,0,3.55,2.21,5.66,4,8.28,1.6,2.35,2.29,5.42,2.9,8.28.35,1.66-.32,3.51-.4,5.28-.32,7.61.74,9.18,7.81,11.76.59.22,1.35.3,1.74.71,7.09,7.63,16.86,7.13,26,8.51a4.93,4.93,0,0,1,4.48,3.9c1.28,4.13,3.72,5.3,7.8,3.89a9.64,9.64,0,0,0,2.72-1.31c3.53-2.71,7.2-2.49,10.59-.11,9.52,6.66,19.56,4.64,29.59,1.94,5.18-1.4,6.08-4,3.75-8.83-2.63-5.47-2.4-6.63,2.82-9.74,2.43-1.45,2.58-3.48,2.56-5.84,0-4.92,1-5.69,5.56-4.5s4.87.62,6.08-3.83a132.54,132.54,0,0,1,5.31-15,7.27,7.27,0,0,1,5.95-4.62c4.11-.68,8.1-2,12.18-2.93a18.44,18.44,0,0,0,11.6-7.8,14.16,14.16,0,0,1,8-5.07c8.32-1.73,12.17-7.07,13.87-14.73.72-3.21,1.16-6.54,2.32-9.58s2.36-6.31,4.64-8.06c6.49-5,9.62-12,13-18.92.64-1.34,1.35-2.64,2.11-4.11,6.2,4.29,12.36,7.72,15.82,14.74,2.35,4.79,6.58,8.63,9.77,13a11.51,11.51,0,0,1,2.17,5.18c.52,4.9,3.33,8.22,6.43,11.72s5.27,7.63,7.94,11.44c1.79,2.55,3.64,5.07,5.62,7.47,1.36,1.64,3.31,2.85,4.45,4.61,2.79,4.34,5.36,8.57,9.88,11.67,2.4,1.65,3.17,5.6,4.85,8.4,2.06,3.43,3.83,7.23,6.58,10,5.1,5.15,7.53,10.48,7.43,18.12-.08,7.06-.37,14.93,5.23,21.07C732.93,311.44,733,314,733,316c-.09,5.65,2,10.24,5.54,14.55,5.38,6.54,10.44,13.35,15.65,20,.78,1,1.68,1.89,2.51,2.85,2.21,2.53,4.75,4.85,6.54,7.66,1.89,3,4.12,4.65,7.65,4.69,6.92.08,11.15,4.47,14.36,9.8.88,1.47.18,4.08-.24,6.07-.24,1.14-1.38,2.08-2.12,3.12-3.83,5.39-3.66,7.59.6,12.8s9.23,9,16.56,9.51c3,.21,5.83,3.09,8.72,4.77,1,.61,2,1.6,3.11,1.83,4.07.84,8.21,1.38,12.3,2.14,4.86.91,9.63.89,14.11-1.42,5.48-2.82,11-4.21,17.14-2.06,1.78.62,4,.09,5.78.09,1.74,2.79,3.33,5.64,5.21,8.29a10.56,10.56,0,0,0,8.55,4.76,32.44,32.44,0,0,1,11.46,3.12c1.83.86,3.32,3.51,3.93,5.64a11.82,11.82,0,0,0,6.39,7.55c8.1,4.26,12.28,11.07,12.59,20.15.17,4.87.27,9.6,3.8,13.57.61.68,0,2.46-.09,3.73-1.2-.32-2.89-.26-3.52-1.05a32.2,32.2,0,0,1-4.37-7.06c-3.68-8.48-10.63-11.63-19.22-12.55a24.22,24.22,0,0,1-7.53-1.93c-2.74-1.29-5-.85-7.6.23-2.27.93-4.81,1.2-7.21,1.82-1.66.43-3.56.59-4.89,1.54-2.7,1.92-5.16,1.76-7.73,0-1.15-.77-2.2-1.72-3.36-2.49-6-3.94-9.93-3.7-14.56,1.25-.88.94-1,2.76-1.13,4.21-.53,5.63-3.27,8.47-8.76,9.17a12.78,12.78,0,0,0-3.7,1.51c-.56.27-1,.9-1.52,1.11-7.12,2.68-14.17,5.59-21.42,7.89-8.47,2.69-15.9,12.71-15.31,21.59.17,2.67-.27,4.4-3.32,5.44-2.38.81-4.37,2.93-6.34,4.68a2.6,2.6,0,0,0,0,2.46,78.39,78.39,0,0,0,6.37,8.92c2.26,2.6,2.73,5.24-.26,7-6.09,3.52-6.65,8.21-4.47,14.21a6.83,6.83,0,0,1-1.65,7.72,3.89,3.89,0,0,0-.33,3.47c1.07,2.48,1.28,4.83-.73,6.67-3.11,2.84-2.58,5.76-.76,8.87.64,1.09,1.45,2.08,2.15,3.14,3.09,4.68,2.27,5.67-2.15,8.8-6.33,4.48-11.5,10.21-12.27,18.6a16.31,16.31,0,0,1-.72,3.68,56.66,56.66,0,0,1-3.14,8.39c-3.31,6.3-.67,10.5,4.36,14.18,4.19,3.07,8.3,6.26,12.37,9.49,2.51,2,3.3,4.23,1.18,7.23-.83,1.17-.72,3.07-.82,4.65a39,39,0,0,0,.35,4.78l-4.13-3.66,4,10-1.23.91a70.21,70.21,0,0,1-6.32-5c-2.8-2.79-5.43-6.51-9.85-5-4.69,1.63-6.46,6.22-6.57,10.74-.17,6.69.67,13.4.77,20.1,0,2.68-.14,5.67-1.27,8-2.84,5.86-4.52,11.86-3.94,18.34.33,3.75-1.79,6.31-4.33,8a80.64,80.64,0,0,1-12.8,6.34c-2.61,1.08-4.6-.38-5-3.09s-1.25-6.16,2.76-6.76c5.81-.85,8.68-4.83,11.11-9.38,2.18-4.07.46-6.68-4.15-6.68a41.39,41.39,0,0,1-4.17-.1c-5.12-.54-5.92-1.92-4.58-6.92a6.9,6.9,0,0,0-.18-4c-1.34-3.5-5.12-5.05-10.32-4.56-3.75.36-5,2.71-6.12,6.13a43,43,0,0,0-2,13.29c0,3.35.06,6.4,2.16,9.39.9,1.27.51,3.87,0,5.66-1.87,6.51-4.19,12.89-6,19.4-1.21,4.28-3.65,6.65-8,7.5-5.23,1-5.56,1.27-4.72,6.56.5,3.11,1.5,6.63,3.5,8.9a12.48,12.48,0,0,1,2.94,11.94,13.45,13.45,0,0,0,1.68,10.88,12.44,12.44,0,0,1,1.48,6.18c.16,10,.07,20,.11,29.94,0,1.76.23,3.52.38,5.85-2.67,0-5.39.17-8.09,0-5.48-.44-9.83,1.5-13.54,5.5-3.94,4.23-9.15,5-14.62,4.62-4.3-.28-5.49-4.11-7.55-6.83-3.64-4.83-7.13-9.78-10.57-14.76-1.72-2.48-3.14-5.17-4.83-7.68-.55-.81-1.47-1.83-2.31-1.91-3.35-.34-4.08-2.42-4.15-5.26-.16-6.51-3.4-8.36-9.37-5.42-.91.44-1.77,1-2.71,1.37-4.33,1.82-7,1.21-9.35-2.79a11,11,0,0,0-6.84-5.52c-3.14-.85-3.55-3.1-2.83-6,1.66-6.59.81-8.84-5.14-12.09-5.77-3.16-11.88-5.69-17.59-8.94-6-3.41-10.81-8-12.16-15.25-.92-4.93.23-6.81,5.15-7.93,2.59-.6,4.33-1.4,3.52-4.49-.52-2,.26-3.08,2.35-3.4,7.5-1.13,15.06-2,22.43-3.67A27.94,27.94,0,0,0,609,720c4-3.26,3.87-8,1-12.36a11.84,11.84,0,0,1-2.25-5.45,6.87,6.87,0,0,0-5.11-6.77c-5.48-1.84-10-4.59-12.6-10.11-.76-1.59-3.3-2.25-4.74-3.62s-3.23-2.92-3.52-4.62c-1-5.87-.34-11.64,3.23-16.74,3-4.27,7.45-5.55,12.26-5.76a14.73,14.73,0,0,0,11.27-5.23c1.66-1.89,5.07-2.24,8.14-3.47a11.43,11.43,0,0,0-5.16-9.4c-12-7.95-19.8-19.86-29.17-30.28q-9-10-18.33-19.85c-3.63-3.86-6.23-3.94-9.52,0a9.37,9.37,0,0,1-8.66,3.56c-1.64-.15-3.3-.11-4.94-.31-4.85-.59-8.49,1-10.38,5.71-1.77,4.46-5.37,7-9.58,8.66A82.84,82.84,0,0,0,493.62,622a8,8,0,0,1-4.49,2.12c-10.67,1-19.24,5.67-24.91,14.74-5.55,8.86-13.85,13.47-23.29,16.64-12.2,4.11-18.71,13.05-21.64,25.12a14,14,0,0,1-.24,1.49c-.88,2.45-12.93,8.1-15.4,7.25-9.5-3.29-13.07-2-18.31,6.36a4.89,4.89,0,0,1-1.16,1.48c-4.54,3.14-7.91,6.8-7.94,12.91,0,1.24-2.66,3.18-4.36,3.57-6.58,1.5-10.45,5.22-12.6,11.66-2.06,6.17-8.7,12.66-14.22,15.2-3.51-7.33-7.43-14.06-5.43-23.2,1.33-6.05-.19-12.83-1.12-19.18-.26-1.78-2.81-3.37-4.55-4.76-3.61-2.89-7.43-5.7-7.4-10.86,0-1.95.92-5.29,2-5.55,2.58-.61,5.54.09,8.29.54a20.06,20.06,0,0,1,4.41,1.67,2.89,2.89,0,0,1,1.45,1c1.7,3.6,3.36,2.06,5.5.3s4.84-3.15,8.06-5.18c.32-2-2.16-3.27-4-4.83s-4-2.41-5.45-4.09c-2-2.33-4.16-4.94-5-7.78a10.83,10.83,0,0,0-6.56-7.72c-3-1.3-6.06-2.6-9-4-5.21-2.54-6.62-8-3.2-12.27.47-.58,1.27-1.56,1.64-1.44,5,1.54,8-3.81,12.89-3.32,5.28.54,6.65-2.09,4.33-6.85-1.05-2.18-.22-3.44,1.76-4.12,3.11-1.07,4.62-3.17,4-6.38s-3.11-4.46-6.12-4.66c-4.3-.29-8.61-.59-12.91-.62-2.64,0-4.47-.74-6-3.08-3.3-5-6.68-5.79-12-3.14-1.47.73-2.86,1.61-4.29,2.43-5.54,3.16-9.8,1.77-12.35-4-.87-2-1.46-4.21-2.83-5.74s-3.6-3.43-5.69-3.81c-8.17-1.51-13.52-6-14.41-14.09-.51-4.63-3-6.87-6.93-7.06-11.67-.58-17.83-8.53-23.5-17.07-1.56-2.36-2.32-5.31-3.16-8.08-2.17-7.14-4.47-9.06-11.76-9.71a85.14,85.14,0,0,1-11.64-1.48c-1.89-.43-4.4-1.85-4.92-3.4s.72-4.3,2.09-5.47a13.68,13.68,0,0,1,7-3.16A68.06,68.06,0,0,1,246.53,523c7,2.26,10.28-.35,10-7.54-.25-6.5-.15-6.31,5.49-9.28a8.19,8.19,0,0,0,3.4-4.85c1-3.88,1-8,2-11.89,1.36-5.4-.34-9.73-3.78-13.64-1.69-1.92-3.73-2.14-6.22-1.37-5.25,1.62-7,.56-10.08-3.9a17.11,17.11,0,0,0-5.9-5.07c-10.84-5.83-21.74-11.49-30.87-20-4.55-4.21-8.41-8.75-9.77-15-.77-3.53-2.48-6.18-6.31-7.38-1-.31-2.16-2.88-1.87-4.09.89-3.75-.68-5.94-3-8.67-3.08-3.59-5.11-8.08-7.57-12.2-.18-.3-.36-.86-.22-1.08,3.17-4.8,1.7-12.4,8.93-14.76,5.28-1.72,10.5-3.67,15.83-5.26,8.48-2.53,10.32-9,9.5-17.5a4.44,4.44,0,0,0-3.23-2.85c-5.76.07-8.61-3.51-11.14-7.85-2-3.42-3.44-7.37-8.85-6.8-2.38.25-3.4-3.06-2.19-6.07.81-2,2.75-3.9.38-6.15s-4.88-1.8-7.4-.59c-4.59,2.21-9.06,3-13.57-.21a3.65,3.65,0,0,0-2.51-.65c-5.61,1.16-8.64-2.61-11.82-6.06-2-2.14-3.71-4.5-5.68-6.65-1.67-1.84-2.8-1.31-3.31,1-.87,3.91-2.62,4.54-5.79,2.12a6,6,0,0,1-2.32-7.07,6.13,6.13,0,0,1,6.66-4.58c2.13.16,4.23,1.31,6.3,1.21s4.37-1.18,6.55-1.83c-.62-2-.79-4.34-2-6-4.1-5.82-9.34-9.38-17.08-8.23-3.57.53-4.41-.88-3-4.25a5.84,5.84,0,0,0-1.28-6.94c-2.94-3-2.66-6.46-.29-9.29,3.56-4.24,7.26-8.58,11.66-11.85a263.71,263.71,0,0,1,24.09-15.83c5.05-3,7.72-2,11.83,2.18,4,4,6.13,4.54,11.09,2.15,3.36-1.63,6.12-.84,8,2,2.81,4.38,6.78,6.47,11.62,7.85,3.1.89,6,2.77,8.78,4.43,4.13,2.42,8.34,4.07,13.29,3.64,3.85-.34,5.71,1.47,5.85,5.11l-6.89,1.2c-3.27.57-3.34,2.92-2.29,5.1.84,1.74,2.48,3.14,3.92,4.52,12.31,11.87,27.47,17.27,44.11,18.92,2.59.25,5.76-.95,8-2.45,6.27-4.15,16.41-3.76,21.76,1.48,3.81,3.72,7.46,7.59,11.22,11.36,3.94,4,8.29,7,14.28,6.93,1,0,2.27,1.2,3.12,2.12,1.18,1.3,1.89,3.06,3.15,4.24,2.85,2.69,6.15,1.68,7.32-2.07.11-.36.11-.76.19-1.13,1.84-7.92,3.17-8.5,10.63-5.28,1,.42,3.34-.12,3.69-.86a65.48,65.48,0,0,0,3-8.76c.33-1.06.16-2.5.82-3.18,1.64-1.72,1.75-3.3,1.08-5.51-.34-1.15.36-3,1.17-4,1.88-2.47,4.81-4.32,4-8.1-.05-.22,0-.61.17-.71,4.91-3.31,1.1-5.4-.95-8-1.23-1.54-1.62-3.76-2.89-5.26a95.35,95.35,0,0,0-9.6-10.18c-1.71-1.5-4.29-2.24-6.6-2.76a31.42,31.42,0,0,1-17.05-10.6c-1.42-1.63-4-2.24-6.05-3.33-3.66-2-7.6-3.59-9.08-8-.16-.48-.28-1.19-.62-1.35-4.41-2-3.08-5.73-3-9.19a10.28,10.28,0,0,0-1.1-4.26C315.17,220.15,313.87,218,312.47,215.35ZM204,396.1c-1.64,0-2.39-.05-3.14,0-3.49.31-6,3.28-5.41,6.33a5.51,5.51,0,0,0,7.23,4.16,15.39,15.39,0,0,0,5.42-3.25c1-1,2.16-3,1.79-4.06-.46-1.29-2.35-2.21-3.79-3A4.13,4.13,0,0,0,204,396.1Z"/><path class="cls-2" d="M289.87,749.74c-1.16-.43-2.33-.84-3.48-1.29-5.25-2.07-10.34-5.15-15.78-6-7.11-1.07-14.35-4.45-21.79-.88a4.09,4.09,0,0,1-3.78-.51c-6-6.43-14.42-7.78-22.07-10.47-10.7-3.76-21.68-6.74-32.57-9.94-7.72-2.28-10.85-6-11.72-13.86a11.78,11.78,0,0,0-2.15-4.65c-3.51-5.39-7.11-10.73-10.75-16a64.48,64.48,0,0,0-5.26-7c-.55-.61-2.17-.48-3.25-.34-6.57.86-11.82-2.2-16.83-5.75a6.51,6.51,0,0,1-2-3.51c-3.52-13.28-10.37-24.39-21.32-32.81-6.38-4.91-8.67-11.92-10.38-19.31-1.15-4.93-2.44-9.83-3.62-14.75-1.26-5.27-3.1-6.65-8.54-8-1.63-.41-3.37-2.56-4-4.3-1.69-4.56-2.8-9.33-4-13.44,2.84-.63,6.23-1.59,9.68-2.08a23.1,23.1,0,0,1,7.14.08c4.71.84,8.75.08,12.2-3.44A60,60,0,0,1,121.9,566c2.77-2.13,6-2.33,8.24.34A157.16,157.16,0,0,1,143.76,584c1.4,2.22.45,6,.22,9.11-.13,1.72-1.47,3.4-1.41,5.07.07,2.07.46,5.21,1.76,5.88,1.69.87,4.48.06,6.63-.6,1.16-.36,2-1.9,2.93-2.9,3.22-3.34,6.72-3.07,8.91,1a24.18,24.18,0,0,1,2,6.86c.74,3.84,2.91,5.73,6.78,5.81,2,0,4.19-.2,6,.41a13.26,13.26,0,0,1,5.91,3.46c3.52,4.2,6.77,4.85,11.16,1.35,2.48-2,4.87-4,7.26-6.12a15.31,15.31,0,0,1,12.26-4c4.13.48,7.82.1,11.34-2.89s12.68,2.56,13.21,7.91a99.46,99.46,0,0,1,.46,15.9c-.14,2.29-2,4.49-3.18,6.68-.83,1.55-2.06,2.91-2.7,4.51-1.34,3.34-.37,5.19,3.11,6.39,1.55.53,3.14,1,4.73,1.41,2.83.71,4.54,2.32,6.12,5s4.35,4.42,6.91,6.11,5.74,2.7,8.46,4.31c4.35,2.57,4.88,6.06,1,9.14-6.2,4.93-5.48,11.59-1.55,16.5a68.8,68.8,0,0,1,13.95,30.84c1.39,7.3,5,13.16,9.43,18.76a58.52,58.52,0,0,1,4.12,5.92,15.68,15.68,0,0,1,1.13,3.26Z"/></g><path class="cls-3" d="M621.4,224.39s.22,1.75.82,4.93"/><path class="cls-4" d="M624.34,239a269.83,269.83,0,0,0,68.11,121.86c46.68,47.76,105.59,68.63,128.38,75.31"/><path class="cls-3" d="M825.59,437.49c3.12.84,4.84,1.22,4.84,1.22"/><path class="cls-3" d="M830.43,457.39s-1.58.76-4.45,2.26"/><path class="cls-5" d="M817.21,464.4c-28.28,15.82-95.1,57.7-132.33,118.34-50,81.47-62.66,172.8-65.57,202.57"/><path class="cls-3" d="M618.87,790.28c-.27,3.24-.36,5-.36,5"/><path class="cls-3" d="M827.55,451.75l-5,.09"/><path class="cls-6" d="M812.42,452c-50.4.36-216.54-.76-343.26-28.56-224.82-49.31-298.74-128.95-317.53-154.9"/><path class="cls-3" d="M148.76,264.31A46.53,46.53,0,0,1,146.2,260"/><path class="cls-7" d="M326.14,184.67s.76,1.53,2.43,4.37"/><path class="cls-8" d="M333.89,197.53c18.76,28.3,74.63,98.6,200.06,163.3C640.66,415.88,778.6,438.55,816.36,444"/><path class="cls-7" d="M821.33,444.66c3.23.44,4.95.65,4.95.65"/><circle class="cls-9" cx="840.66" cy="447.05" r="15.6"/><circle class="cls-9" cx="454.69" cy="310.75" r="10.38"/><path class="cls-9" d="M479,254.16a20.12,20.12,0,0,0-1.84-6.92,25.08,25.08,0,0,0-4-5.86,24.69,24.69,0,0,0-23.07-8.19,23.93,23.93,0,0,0-19.71,22.45,31.68,31.68,0,0,0,.21,6,31.19,31.19,0,0,0,1.91,7.1,57.77,57.77,0,0,0,5.84,10.73c2.49,3.76,5.27,7.31,7.95,10.94a93.19,93.19,0,0,0,8.5,10l.07-.1c2.29-2.75,4.66-5.43,6.82-8.29,3.46-4.6,6.88-9.21,9.87-14.14a61,61,0,0,0,5.78-11.95A28.74,28.74,0,0,0,479,254.16Z"/></svg>