<svg xmlns="http://www.w3.org/2000/svg" viewBox="0 0 20 16"><path d="M7.1 15c-.4 0-.7-.1-1-.4l-4.7-4.5c-.3-.3-.4-.6-.4-1s.2-.7.4-1l1-1c.6-.5 1.4-.5 2 0l2.7 2.6 8.5-8.3c.6-.5 1.4-.5 2 0l1 1c.3.3.4.6.4 1s-.2.7-.4 1L8.1 14.6c-.3.2-.6.4-1 .4z" fill="#fff"/><path d="M16.6 2c-.1 0-.2 0-.3.1l-9.2 9-3.4-3.3c-.1-.1-.2-.1-.3-.1-.1 0-.2 0-.3.1l-1 1c-.2.1-.2.4-.1.6l.1.1L6.8 14h.3c.1 0 .2 0 .3-.1L17.9 3.7c.2-.1.2-.4.1-.5l-.1-.1-1-1c-.1-.1-.2-.1-.3-.1m0-2c.6 0 1.3.2 1.7.7l1 1c.5.5.7 1.1.7 1.7 0 .6-.3 1.2-.7 1.7L8.8 15.3c-.5.4-1.1.7-1.7.7-.6 0-1.3-.2-1.7-.7L.7 10.8C.2 10.4 0 9.7 0 9.1c0-.6.3-1.2.7-1.7l1-1c.5-.4 1.1-.7 1.7-.7.6 0 1.3.3 1.7.7l2 1.9L14.9.7C15.3.2 16 0 16.6 0z" fill="#a6c042"/></svg>